<svg xmlns="http://www.w3.org/2000/svg" width="527.1" height="609.02" viewBox="0 0 527.1 609.02"><path d="M300.82,245.68q-69-.17-138.08,0a92,92,0,0,0-17.82,1.84c-35.34,7.13-68.64,40.59-63.8,89.6a.17.17,0,0,0,.34,0c5.28-15.1,15-26.55,28.62-34.64,15.41-9.17,32.37-15.67,50.19-15.68,47.7,0,95.4.08,143.11-.09,34.87-.12,56.42-18.63,56.42-50.39,0-36.55-28.15-55.76-56.71-55.82-46-.12-96.4-.67-142.43,0a96.5,96.5,0,0,0-17.81,1.84C107.51,189.56,74.21,223,79.05,272a.17.17,0,0,0,.34,0c5.28-15.09,15-26.54,28.61-34.63,15.42-9.17,32.37-12.84,50.19-12.85,47.71,0,95.41.07,143.12-.09v0c1.18,0-1.17,0,0,0,7.17,0,14.67,2.29,14.67,10.63C316,244.65,307.73,245.7,300.82,245.68Z" fill="#00ce7c"/><path d="M427.1,157c-27.59-45.46-67.3-69.36-124-69.36-16.35,0-33.26-.07-50.32-.08h-8.64c-28.15,0-56.55,0-83.47.11a92.72,92.72,0,0,0-17.81,1.84c-35.35,7.13-68.65,40.6-63.8,89.63a.17.17,0,0,0,.33,0c5.28-15.12,15-26.57,28.62-34.67A90.06,90.06,0,0,1,140.05,133a101.94,101.94,0,0,1,16.28-1.21q72.09,0,144.19.06a136.92,136.92,0,0,1,20,1.49c49.73,7.5,88.34,55.82,84.58,105.61-4.24,56.18-47.45,96.32-103.79,96.37-45.78.05-80.45.1-126,.1-57.93,0-83.59,37.49-92.62,71.63,0,0,0,0,0,0-14.94,50,8.88,97.37,22.14,107.41,12,8,38,7.41,44.22,6.51a1.19,1.19,0,0,0,.77-1.89c-10.54-10.79-37.56-52.16-27.34-98,7.56-33.95,30.28-41.84,60.11-41.84l34.19,0h21.9c29.35,0,58.69,1.56,87.6-1.65C430.6,366.07,481.56,246.65,427.1,157Z" fill="#00ce7c"/></svg>